<svg xmlns="http://www.w3.org/2000/svg" viewBox="0 0 512 512">
  <rect width="512" height="512" rx="112" fill="#f1e8d8"/>
  <g fill="#1696a3" opacity="0.32">
    <circle cx="120" cy="120" r="6"/><circle cx="174" cy="120" r="6"/><circle cx="228" cy="120" r="6"/><circle cx="282" cy="120" r="6"/><circle cx="336" cy="120" r="6"/><circle cx="390" cy="120" r="6"/>
    <circle cx="120" cy="174" r="6"/><circle cx="174" cy="174" r="6"/><circle cx="228" cy="174" r="6"/><circle cx="282" cy="174" r="6"/><circle cx="336" cy="174" r="6"/><circle cx="390" cy="174" r="6"/>
    <circle cx="120" cy="228" r="6"/><circle cx="174" cy="228" r="6"/><circle cx="228" cy="228" r="6"/><circle cx="282" cy="228" r="6"/><circle cx="336" cy="228" r="6"/><circle cx="390" cy="228" r="6"/>
    <circle cx="120" cy="282" r="6"/><circle cx="174" cy="282" r="6"/><circle cx="228" cy="282" r="6"/><circle cx="282" cy="282" r="6"/><circle cx="336" cy="282" r="6"/><circle cx="390" cy="282" r="6"/>
    <circle cx="120" cy="336" r="6"/><circle cx="174" cy="336" r="6"/><circle cx="228" cy="336" r="6"/><circle cx="282" cy="336" r="6"/><circle cx="336" cy="336" r="6"/><circle cx="390" cy="336" r="6"/>
    <circle cx="120" cy="390" r="6"/><circle cx="174" cy="390" r="6"/><circle cx="228" cy="390" r="6"/><circle cx="282" cy="390" r="6"/><circle cx="336" cy="390" r="6"/><circle cx="390" cy="390" r="6"/>
  </g>
  <path d="M232 270 C 292 356, 364 356, 404 256" fill="none" stroke="#df5a36" stroke-width="46" stroke-linecap="round" stroke-linejoin="round"/>
  <g transform="translate(232 256) rotate(-40) scale(0.7) translate(-256 -418)">
    <path d="M256 132 C 214 132, 196 160, 196 206 C 196 268, 214 330, 256 418 C 298 330, 316 268, 316 206 C 316 160, 298 132, 256 132 Z" fill="#2f2820"/>
    <circle cx="256" cy="228" r="15" fill="#f1e8d8"/>
    <line x1="256" y1="246" x2="256" y2="404" stroke="#1696a3" stroke-width="11" stroke-linecap="round"/>
  </g>
</svg>
